<svg width="48" height="49" viewBox="0 0 48 49" fill="none" xmlns="http://www.w3.org/2000/svg">
<path fill-rule="evenodd" clip-rule="evenodd" d="M24 0C10.7506 0 0 10.9745 0 24.5C0 38.0255 10.7506 49 24 49C37.2234 49 48 38.0255 48 24.5C48 10.9745 37.2234 0 24 0ZM39.8525 11.2934C42.7158 14.8541 44.4338 19.3981 44.4859 24.314C43.8091 24.1811 37.0412 22.7728 30.2213 23.6497C30.0651 23.3043 29.9349 22.9322 29.7788 22.5602C29.3623 21.5504 28.8937 20.5141 28.4252 19.5309C35.974 16.3954 39.41 11.878 39.8525 11.2934ZM24 3.61388C29.2061 3.61388 33.9696 5.60683 37.5878 8.87527C37.2234 9.40673 34.1258 13.6318 26.8373 16.4219C23.4794 10.1242 19.757 4.96909 19.1844 4.17191C20.7202 3.79989 22.3341 3.61388 24 3.61388ZM15.2798 5.58027C15.8265 6.32428 19.4707 11.506 22.8807 17.6708C13.3015 20.2749 4.84166 20.2218 3.93059 20.2218C5.25811 13.7381 9.55315 8.34382 15.2798 5.58027ZM3.48807 24.5266C3.48807 24.314 3.48807 24.1014 3.48807 23.8888C4.3731 23.9154 14.3167 24.0483 24.5466 20.9127C25.1453 22.0819 25.692 23.2776 26.2126 24.4734C25.9523 24.5532 25.6659 24.6329 25.4056 24.7126C14.8373 28.1936 9.21475 37.7066 8.74622 38.5038C5.4924 34.8102 3.48807 29.8943 3.48807 24.5266ZM24 45.4393C19.2625 45.4393 14.8894 43.7917 11.4273 41.0282C11.7918 40.2576 15.9566 32.0732 27.5141 27.9545C27.5662 27.9279 27.5922 27.9279 27.6443 27.9013C30.5336 35.5276 31.705 41.9317 32.0173 43.7652C29.5445 44.8547 26.8373 45.4393 24 45.4393ZM35.4274 41.852C35.2191 40.5765 34.1258 34.4647 31.4447 26.9447C37.8742 25.9084 43.4967 27.609 44.1996 27.8482C43.3145 33.6676 40.0347 38.6898 35.4274 41.852Z" fill="#A8ADAF"/>
</svg>
