<svg width="53" height="52" viewBox="0 0 53 52" fill="none" xmlns="http://www.w3.org/2000/svg">
<path d="M53 26.5363C53 38.3303 45.3589 48.3223 34.954 51.926C33.4908 52.2536 33.0031 51.4346 33.0031 50.6156C33.0031 49.7966 33.1656 46.8481 33.1656 43.2444C33.1656 40.7873 32.1902 39.1493 31.3773 38.3302C37.2301 37.675 43.408 35.5456 43.408 25.2259C43.408 22.2774 42.4325 19.9841 40.6442 18.0185C40.9693 17.3633 41.9448 14.7424 40.4816 10.9749C38.9642 10.5381 36.5256 11.4663 33.1656 13.7596C31.0521 13.1043 28.7761 12.7767 26.5 12.7767C24.2239 12.7767 21.9479 13.1043 19.8344 13.7596C16.4744 11.4663 14.09 10.5381 12.681 10.9749C11.2178 14.7424 12.0307 17.3633 12.3558 18.0185C10.7301 19.9841 9.59202 22.2774 9.59202 25.2259C9.59202 35.3818 15.7699 37.675 21.6227 38.3302C20.9724 39.1493 20.1595 40.2959 19.9969 41.934C18.5338 42.5892 14.6319 43.8996 12.3558 39.8045C11.3804 38.0572 10.0256 37.129 8.2914 37.0198C6.55725 37.0198 6.50307 37.5658 8.12884 38.6579C9.21268 39.2039 10.1881 40.5143 11.0552 42.5892C12.0307 45.9745 15.0113 47.1211 19.9969 46.0291C19.9969 48.3223 19.9969 49.9604 19.9969 50.6156C19.9969 51.2708 19.5092 52.2536 18.2086 51.926C7.6411 48.3223 0 38.3303 0 26.5363C0 11.7939 11.8681 0 26.5 0C41.1319 0 53 11.7939 53 26.5363Z" fill="#A8ADAF"/>
</svg>
