<svg width="710" height="716" viewBox="0 0 710 716" fill="none" xmlns="http://www.w3.org/2000/svg">
<mask id="mask0_2284_12994" style="mask-type:alpha" maskUnits="userSpaceOnUse" x="0" y="0" width="710" height="716">
<rect width="710" height="716" fill="#F6F5F8"/>
</mask>
<g mask="url(#mask0_2284_12994)">
<path d="M613.151 493.222C613.151 493.222 658.473 489.078 689.461 468.665L688.644 450.701L613.121 460.974L613.151 493.222Z" fill="#FFC9C1"/>
<path d="M103.765 316.608L216.082 438.52C216.082 438.52 281.432 501.806 242.814 539.209C210.173 562.035 187.131 532.043 187.131 532.043C187.131 532.043 101.059 422.363 60.8683 336.505C60.8683 336.505 58.4025 324.207 77.3703 315.332C96.4909 306.387 103.765 316.608 103.765 316.608Z" fill="#FFC9C1"/>
<path d="M114.27 336.698C114.839 350.445 104.142 362.052 90.376 362.618C76.6102 363.183 64.9891 352.494 64.4197 338.747C63.8502 324.997 74.5478 313.392 88.3136 312.827C102.079 312.261 113.7 322.948 114.27 336.698Z" fill="#FFC9C1"/>
<path d="M105.772 320.014C105.772 320.014 109.658 335.993 92.2268 343.63C76.3379 350.595 65.936 342.835 60.8363 339.763C42.4495 328.699 22.1197 281.842 22.1197 281.842C22.1197 281.842 88.2602 246.16 87.7472 247.273C87.2304 248.39 105.772 320.014 105.772 320.014Z" fill="#FFC9C1"/>
<path d="M105.792 319.993C104.622 316.331 113.593 273.918 116.492 258.075C117.191 254.255 114.119 250.585 110.041 250.361C107.386 250.215 103.331 251.088 101.899 255.057L88.4824 287.283L105.792 319.993Z" fill="#FFC9C1"/>
<path d="M98.5582 276.444L78.4305 218.389C77.1774 214.514 72.8118 212.317 68.9303 213.608C65.5735 214.724 63.7148 218.103 64.5925 221.503L75.875 265.23L98.5582 276.444Z" fill="#FFC9C1"/>
<path d="M71.6795 257.668L49.5735 217.254C47.7173 213.705 43.2324 212.205 39.6904 213.949C36.6198 215.46 35.2555 218.944 36.4716 222.168L55.2742 269.779L71.6795 257.668Z" fill="#FFC9C1"/>
<path d="M55.8598 272.611L29.5293 233.524C27.1083 229.892 22.1499 228.723 18.5144 230.925C15.0965 232.994 14.0495 237.322 16.1141 240.849L37.9415 278.163L55.8598 272.611Z" fill="#FFC9C1"/>
<path d="M22.1212 281.871L2.43935 258.403C0.686226 255.567 1.46411 252.014 4.21543 250.281C6.84757 248.621 10.4503 249.158 12.6242 251.538L37.9282 278.171L22.1212 281.871Z" fill="#FFC9C1"/>
<path d="M83.8741 279.838C83.8741 279.838 60.9697 288.981 74.0029 319.056L83.8741 279.838Z" fill="#FFC9C1"/>
<path fill-rule="evenodd" clip-rule="evenodd" d="M82.9196 277.467C82.9213 277.467 82.9229 277.466 83.8737 279.837L82.9229 277.466C84.2335 276.943 85.7217 277.58 86.2468 278.89C86.7707 280.197 86.1378 281.679 84.8328 282.205M84.8327 282.205L84.8296 282.207L84.8273 282.208M84.8327 282.205L84.8098 282.215C84.7842 282.226 84.7386 282.246 84.6746 282.275C84.5466 282.332 84.3459 282.427 84.0862 282.56C83.5662 282.827 82.8153 283.249 81.9426 283.845C80.191 285.041 77.9929 286.909 76.168 289.602C72.6269 294.827 70.129 303.692 76.3483 318.044C76.9094 319.339 76.3139 320.841 75.0183 321.401C73.7227 321.96 72.2176 321.363 71.6565 320.069C64.8426 304.345 67.2804 293.601 71.9332 286.735C74.2052 283.383 76.9187 281.086 79.0544 279.627C80.1254 278.896 81.0621 278.368 81.7437 278.018C82.0849 277.843 82.3635 277.711 82.5647 277.62C82.6653 277.575 82.7467 277.539 82.807 277.514C82.8371 277.501 82.862 277.491 82.8814 277.483L82.9064 277.473L82.9157 277.469L82.9196 277.467" fill="#253138"/>
<path d="M192.791 462.387C172.778 486.398 168.346 516.595 192.155 536.864C200.715 544.15 213.826 549.979 225.833 547.015C265.855 537.136 326.926 451.298 326.926 451.298L310.643 305.222L204.061 446.554L192.791 462.387Z" fill="#FFC9C1"/>
<path d="M234.353 401.948C234.353 401.948 273.307 458.698 306.092 478.417L326.924 451.297L243.955 389.221L234.353 401.948Z" fill="#FFB4A9"/>
<path d="M400.938 231.47C400.938 231.47 289.236 256.916 230.012 386.783C230.012 386.783 266.138 440.839 323.892 464.758L362.394 417.406L400.938 231.47Z" fill="white"/>
<path d="M342.696 643.783L342.817 869H466.309L474.884 643.783H342.696Z" fill="#407BFF"/>
<path d="M476.764 643.783L485.338 869H608.828L608.951 643.783H476.764Z" fill="#407BFF"/>
<path d="M541.975 729.78H415.184V643.783H541.975V729.78Z" fill="#407BFF"/>
<path d="M686.419 427.768C694.021 511.646 686 572.758 688.218 727.099L615.029 730.161L604.122 441.263L686.419 427.768Z" fill="#FFC9C1"/>
<path d="M540.44 234.652C540.44 234.652 684.401 270.805 710.484 453.279C710.484 453.279 640.025 483.783 569.416 470.663L585.303 409.632L540.44 234.652Z" fill="white"/>
<path d="M400.956 231.087C357.296 253.45 329.846 283.109 329.846 283.109L338.459 662.285H613.602L612.708 285.064C612.708 285.064 578.027 251.174 540.438 234.651C508.515 220.618 431.995 215.19 400.956 231.087Z" fill="white"/>
<path fill-rule="evenodd" clip-rule="evenodd" d="M538.769 351.35H583.911V375.284C583.911 387.731 573.804 397.821 561.34 397.821C548.876 397.821 538.769 387.731 538.769 375.284V351.35ZM542.107 354.683V375.284C542.107 385.89 550.719 394.487 561.34 394.487C571.961 394.487 580.573 385.89 580.573 375.284V354.683H542.107Z" fill="#253138"/>
<path fill-rule="evenodd" clip-rule="evenodd" d="M616.785 345.705C618.072 345.742 619.085 346.814 619.048 348.099L615.481 472.137C615.444 473.422 614.371 474.435 613.084 474.398C611.797 474.361 610.783 473.289 610.82 472.003L614.387 347.966C614.424 346.68 615.497 345.668 616.785 345.705Z" fill="#253138"/>
<path fill-rule="evenodd" clip-rule="evenodd" d="M328.003 341.552C329.288 341.481 330.388 342.464 330.459 343.748L336.404 451.268C336.475 452.552 335.491 453.651 334.205 453.721C332.919 453.792 331.819 452.809 331.748 451.525L325.803 344.005C325.732 342.721 326.717 341.623 328.003 341.552Z" fill="#253138"/>
<path d="M511.748 220.652V124.439H422.928V220.652L396.488 232.687C396.488 232.687 402.689 272.564 468.269 273.45C533.85 274.334 540.438 234.651 540.438 234.651L511.748 220.652Z" fill="#FFC9C1"/>
<path d="M530.605 92.5933C530.605 92.5933 536.594 83.0808 548.946 87.7594C561.296 92.438 555.71 122.389 537.181 126.207C537.181 126.207 530.541 127.652 525.332 123.113C525.332 123.113 529.89 100.989 530.605 92.5933Z" fill="#FFB4A9"/>
<path fill-rule="evenodd" clip-rule="evenodd" d="M547.23 96.1146C547.232 96.1152 547.234 96.1158 546.498 98.3167L547.234 96.1158C548.455 96.5229 549.115 97.8418 548.707 99.0615C548.302 100.274 546.995 100.932 545.779 100.54C545.775 100.539 545.766 100.536 545.753 100.533C545.715 100.522 545.644 100.503 545.541 100.481C545.335 100.436 545.007 100.378 544.581 100.344C543.729 100.277 542.5 100.31 541.069 100.734C538.295 101.557 534.343 103.984 530.907 111.102C530.347 112.26 528.954 112.746 527.794 112.188C526.634 111.63 526.147 110.238 526.706 109.08C530.614 100.983 535.506 97.5268 539.741 96.2703C541.815 95.655 543.631 95.5984 544.948 95.7022C545.606 95.7542 546.144 95.8465 546.532 95.9308C546.727 95.973 546.884 96.0134 547.002 96.0461C547.061 96.0625 547.11 96.077 547.149 96.0888L547.199 96.1045L547.218 96.1108L547.226 96.1134L547.23 96.1146Z" fill="#253138"/>
<path d="M404.181 92.5933C404.181 92.5933 398.19 83.0808 385.84 87.7594C373.491 92.438 379.079 122.389 397.605 126.207C397.605 126.207 404.245 127.652 409.454 123.113C409.454 123.113 404.897 100.989 404.181 92.5933Z" fill="#FFB4A9"/>
<path fill-rule="evenodd" clip-rule="evenodd" d="M388.289 98.3244L387.551 96.1158C386.329 96.5229 385.67 97.8418 386.077 99.0615C386.483 100.274 387.79 100.932 389.005 100.54C389.009 100.539 389.018 100.536 389.032 100.533C389.069 100.522 389.141 100.503 389.244 100.481C389.45 100.436 389.778 100.378 390.204 100.344C391.056 100.277 392.285 100.31 393.715 100.734C396.489 101.557 400.442 103.984 403.878 111.102C404.437 112.26 405.831 112.746 406.991 112.188C408.151 111.63 408.638 110.238 408.078 109.08C404.17 100.983 399.278 97.5268 395.044 96.2703C392.97 95.655 391.154 95.5984 389.837 95.7022C389.178 95.7542 388.641 95.8465 388.252 95.9308C388.058 95.973 387.9 96.0134 387.782 96.0461C387.723 96.0625 387.674 96.077 387.636 96.0888L387.585 96.1045L387.566 96.1108L387.558 96.1134L387.554 96.1146C387.553 96.1152 387.551 96.1158 388.289 98.3244Z" fill="#253138"/>
<path d="M531.842 64.1698C531.849 82.2268 530.075 120.005 518.958 142.426C508.522 163.479 491.258 174.809 468.628 175.485C445.995 176.158 429.136 167.447 415.624 140.126C402.113 112.804 402.758 64.5055 402.758 64.5055C402.758 64.5055 402.758 0 466.599 0C533.839 0 531.842 64.1698 531.842 64.1698Z" fill="#FFC9C1"/>
<path d="M423.596 153.589C423.596 153.589 431.032 191.277 463.879 195.608C501.678 200.59 511.748 154.546 511.748 154.546C511.748 154.546 495.045 175.448 468.628 175.48C439.168 175.519 423.596 153.589 423.596 153.589Z" fill="#253138"/>
<path fill-rule="evenodd" clip-rule="evenodd" d="M462.747 88.6211C464.034 88.6211 465.078 89.6635 465.078 90.9494V105.88C465.078 106.22 465.143 106.539 465.261 106.832L465.262 106.834C465.644 107.791 466.895 108.464 468.237 108.108L473.191 106.791C474.435 106.46 475.713 107.199 476.044 108.442C476.375 109.684 475.635 110.96 474.391 111.291L469.436 112.608C466.168 113.476 462.319 112.03 460.931 108.562L463.097 107.698L460.932 108.564C460.597 107.729 460.415 106.824 460.415 105.88V90.9494C460.415 89.6635 461.459 88.6211 462.747 88.6211Z" fill="#253138"/>
<path d="M477.697 54.9443L516.77 65.0277C516.77 65.0277 514.993 54.0812 499.008 50.1035C483.022 46.1282 477.697 54.9443 477.697 54.9443Z" fill="#253138"/>
<path d="M453.415 54.9443L414.337 65.0277C414.337 65.0277 416.114 54.0812 432.099 50.1035C448.085 46.1282 453.415 54.9443 453.415 54.9443Z" fill="#253138"/>
<path fill-rule="evenodd" clip-rule="evenodd" d="M491.034 119.856C491.622 121 491.17 122.403 490.024 122.99L488.96 120.919C490.024 122.99 490.024 122.991 490.023 122.991L490.021 122.992L490.018 122.994L490.007 122.999L489.978 123.014C489.954 123.026 489.922 123.042 489.881 123.062C489.8 123.101 489.685 123.156 489.538 123.223C489.245 123.358 488.821 123.545 488.275 123.766C487.182 124.208 485.596 124.788 483.571 125.364C479.522 126.516 473.707 127.659 466.565 127.659C458.757 127.659 453.277 126.522 449.687 125.335C447.893 124.742 446.578 124.139 445.684 123.663C445.237 123.425 444.897 123.22 444.656 123.065C444.536 122.987 444.44 122.922 444.368 122.872C444.333 122.847 444.303 122.825 444.279 122.808L444.247 122.784L444.235 122.775L444.229 122.771L444.227 122.769C444.226 122.768 444.225 122.767 445.643 120.919L444.225 122.767C443.203 121.985 443.009 120.523 443.792 119.503C444.571 118.488 446.022 118.291 447.043 119.057C447.043 119.057 447.043 119.057 447.043 119.057C447.045 119.059 447.049 119.062 447.054 119.065C447.074 119.079 447.118 119.109 447.184 119.152C447.318 119.238 447.546 119.377 447.877 119.553C448.538 119.905 449.61 120.404 451.153 120.914C454.234 121.933 459.216 123.002 466.565 123.002C473.209 123.002 478.591 121.939 482.293 120.886C484.144 120.359 485.572 119.835 486.524 119.45C487 119.258 487.357 119.1 487.588 118.994C487.703 118.941 487.787 118.9 487.839 118.875L487.895 118.847C487.895 118.848 487.896 118.847 487.895 118.847C487.896 118.847 487.897 118.846 487.898 118.846C487.898 118.846 487.899 118.846 487.899 118.846C489.044 118.262 490.447 118.713 491.034 119.856Z" fill="#253138"/>
<path fill-rule="evenodd" clip-rule="evenodd" d="M436.517 64.1059C424.676 64.1059 415.076 73.6906 415.076 85.5147C415.076 97.3388 424.676 106.924 436.517 106.924C448.359 106.924 457.958 97.3388 457.958 85.5147C457.958 73.6906 448.359 64.1059 436.517 64.1059ZM408.564 85.5147C408.564 70.0981 421.08 57.6025 436.517 57.6025C451.955 57.6025 464.471 70.0981 464.471 85.5147C464.471 100.931 451.955 113.427 436.517 113.427C421.08 113.427 408.564 100.931 408.564 85.5147Z" fill="white"/>
<path fill-rule="evenodd" clip-rule="evenodd" d="M497.185 64.1059C485.343 64.1059 475.744 73.6906 475.744 85.5147C475.744 97.3388 485.343 106.924 497.185 106.924C509.026 106.924 518.626 97.3388 518.626 85.5147C518.626 73.6906 509.026 64.1059 497.185 64.1059ZM469.231 85.5147C469.231 70.0981 481.747 57.6025 497.185 57.6025C512.622 57.6025 525.139 70.0981 525.139 85.5147C525.139 100.931 512.622 113.427 497.185 113.427C481.747 113.427 469.231 100.931 469.231 85.5147Z" fill="white"/>
<path d="M443.893 83.8205C443.893 87.0241 441.289 89.6249 438.079 89.6249C434.87 89.6249 432.268 87.0241 432.268 83.8205C432.268 80.6146 434.87 78.0161 438.079 78.0161C441.289 78.0161 443.893 80.6146 443.893 83.8205Z" fill="#253138"/>
<path d="M444.474 83.8208C444.474 87.3448 441.609 90.2056 438.077 90.2056C434.548 90.2056 431.686 87.3448 431.686 83.8208C431.686 80.2944 434.548 77.436 438.077 77.436C441.609 77.436 444.474 80.2944 444.474 83.8208Z" fill="#253138"/>
<path d="M498.385 83.8205C498.385 87.0241 495.781 89.6249 492.572 89.6249C489.364 89.6249 486.76 87.0241 486.76 83.8205C486.76 80.6146 489.364 78.0161 492.572 78.0161C495.781 78.0161 498.385 80.6146 498.385 83.8205Z" fill="#253138"/>
<path d="M498.966 83.8208C498.966 87.3448 496.102 90.2056 492.573 90.2056C489.044 90.2056 486.179 87.3448 486.179 83.8208C486.179 80.2944 489.044 77.436 492.573 77.436C496.102 77.436 498.966 80.2944 498.966 83.8208Z" fill="#253138"/>
</g>
</svg>
