<svg width="425" height="364" viewBox="0 0 425 364" fill="none" xmlns="http://www.w3.org/2000/svg">
<mask id="mask0_2284_12996" style="mask-type:alpha" maskUnits="userSpaceOnUse" x="-3" y="0" width="428" height="364">
<rect x="-3" width="428" height="364" fill="white"/>
</mask>
<g mask="url(#mask0_2284_12996)">
<path d="M-90.5247 261.76L2.28564 362.244C2.28564 362.244 56.2933 414.397 24.3117 445.316C-2.71227 464.195 -21.7482 439.469 -21.7482 439.469C-21.7482 439.469 -92.8575 349.049 -126.031 278.235C-126.031 278.235 -128.06 268.088 -112.36 260.739C-96.5336 253.333 -90.5247 261.76 -90.5247 261.76Z" fill="#FFC9C1"/>
<path d="M-17.0516 382.06C-33.6048 401.901 -37.2782 426.844 -17.6016 443.573C-10.5269 449.586 0.310478 454.395 10.2381 451.94C43.3285 443.761 93.8456 372.834 93.8456 372.834L80.4305 252.193L-7.7293 368.977L-17.0516 382.06Z" fill="#FFC9C1"/>
<path d="M17.3249 332.144C17.3249 332.144 49.5035 378.985 76.5955 395.252L93.8227 372.847L25.2648 321.63L17.3249 332.144Z" fill="#FFB4A9"/>
<path d="M154.979 191.25C154.979 191.25 62.678 212.282 13.7336 319.58C13.7336 319.58 43.582 364.236 91.3036 383.992L123.121 344.869L154.979 191.25Z" fill="white"/>
<path d="M390.842 353.438C397.124 422.741 390.496 473.235 392.329 600.757L331.858 603.287L322.846 364.588L390.842 353.438Z" fill="#FFC9C1"/>
<path d="M270.229 193.879C270.229 193.879 389.175 223.75 410.726 374.517C410.726 374.517 352.511 399.72 294.17 388.879L307.297 338.454L270.229 193.879Z" fill="white"/>
<path d="M154.983 190.933C118.909 209.41 96.2285 233.916 96.2285 233.916L103.345 547.205H330.678L329.94 235.531C329.94 235.531 301.285 207.529 270.228 193.878C243.852 182.283 180.628 177.798 154.983 190.933Z" fill="white"/>
<path fill-rule="evenodd" clip-rule="evenodd" d="M268.849 290.299H306.146V310.074C306.146 320.358 297.796 328.695 287.498 328.695C277.199 328.695 268.849 320.358 268.849 310.074V290.299ZM271.607 293.053V310.074C271.607 318.837 278.722 325.941 287.498 325.941C296.273 325.941 303.388 318.837 303.388 310.074V293.053H271.607Z" fill="#253138"/>
<path fill-rule="evenodd" clip-rule="evenodd" d="M333.308 285.635C334.372 285.666 335.209 286.551 335.178 287.613L332.231 390.098C332.201 391.16 331.314 391.996 330.25 391.966C329.187 391.935 328.349 391.05 328.38 389.988L331.327 287.503C331.358 286.441 332.245 285.605 333.308 285.635Z" fill="#253138"/>
<path fill-rule="evenodd" clip-rule="evenodd" d="M94.7056 282.203C95.7679 282.144 96.6766 282.957 96.7353 284.017L101.647 372.854C101.706 373.915 100.892 374.823 99.83 374.881C98.7677 374.94 97.859 374.127 97.8003 373.067L92.8882 284.23C92.8296 283.169 93.6432 282.261 94.7056 282.203Z" fill="#253138"/>
<path d="M246.523 182.311V102.816H173.136V182.311L151.291 192.255C151.291 192.255 156.415 225.203 210.599 225.935C264.785 226.665 270.227 193.878 270.227 193.878L246.523 182.311Z" fill="#FFC9C1"/>
<path d="M262.103 76.5041C262.103 76.5041 267.051 68.6445 277.257 72.5101C287.461 76.3758 282.846 101.123 267.537 104.277C267.537 104.277 262.05 105.471 257.747 101.721C257.747 101.721 261.512 83.4412 262.103 76.5041Z" fill="#FFB4A9"/>
<path fill-rule="evenodd" clip-rule="evenodd" d="M275.84 79.4132C275.841 79.4137 275.842 79.4141 275.235 81.2326L275.842 79.4141C276.852 79.7505 277.397 80.8402 277.06 81.848C276.725 82.8497 275.645 83.3935 274.641 83.0697C274.637 83.0687 274.63 83.0665 274.619 83.0634C274.588 83.0549 274.529 83.0393 274.444 83.0209C274.273 82.9839 274.002 82.9358 273.651 82.908C272.947 82.8525 271.931 82.8792 270.749 83.2299C268.457 83.91 265.192 85.9148 262.352 91.7961C261.89 92.7531 260.739 93.155 259.781 92.6936C258.822 92.2322 258.42 91.0824 258.882 90.1253C262.111 83.436 266.153 80.58 269.652 79.5418C271.365 79.0334 272.866 78.9866 273.954 79.0724C274.498 79.1154 274.942 79.1916 275.263 79.2613C275.423 79.2962 275.554 79.3296 275.651 79.3566C275.7 79.3701 275.74 79.3821 275.772 79.3919L275.814 79.4048L275.83 79.41L275.836 79.4122L275.84 79.4132Z" fill="#253138"/>
<path d="M157.647 76.5041C157.647 76.5041 152.697 68.6445 142.493 72.5101C132.289 76.3758 136.907 101.123 152.213 104.277C152.213 104.277 157.7 105.471 162.004 101.721C162.004 101.721 158.238 83.4412 157.647 76.5041Z" fill="#FFB4A9"/>
<path fill-rule="evenodd" clip-rule="evenodd" d="M144.517 81.2389L143.907 79.4141C142.897 79.7505 142.352 80.8402 142.689 81.848C143.024 82.8497 144.104 83.3935 145.108 83.0697C145.112 83.0687 145.119 83.0665 145.13 83.0634C145.161 83.0549 145.22 83.0393 145.305 83.0209C145.475 82.9839 145.747 82.9358 146.098 82.908C146.802 82.8525 147.818 82.8792 149 83.2299C151.292 83.91 154.557 85.9148 157.396 91.7961C157.858 92.7531 159.01 93.155 159.968 92.6936C160.927 92.2322 161.329 91.0824 160.867 90.1253C157.638 83.436 153.596 80.58 150.097 79.5418C148.384 79.0334 146.883 78.9866 145.795 79.0724C145.251 79.1154 144.807 79.1916 144.486 79.2613C144.326 79.2962 144.195 79.3296 144.098 79.3566C144.049 79.3701 144.009 79.3821 143.977 79.3919L143.935 79.4048L143.919 79.41L143.912 79.4122L143.909 79.4132C143.908 79.4137 143.907 79.4141 144.517 81.2389Z" fill="#253138"/>
<path d="M263.126 53.0195C263.131 67.9389 261.665 99.1529 252.48 117.678C243.857 135.072 229.593 144.434 210.895 144.992C192.195 145.549 178.266 138.351 167.102 115.778C155.938 93.2025 156.471 53.2969 156.471 53.2969C156.471 53.2969 156.471 0 209.219 0C264.775 0 263.126 53.0195 263.126 53.0195Z" fill="#FFC9C1"/>
<path d="M173.688 126.902C173.688 126.902 179.832 158.04 206.972 161.619C238.203 165.736 246.523 127.692 246.523 127.692C246.523 127.692 232.722 144.962 210.896 144.989C186.554 145.021 173.688 126.902 173.688 126.902Z" fill="#253138"/>
<path fill-rule="evenodd" clip-rule="evenodd" d="M206.036 73.2222C207.1 73.2222 207.963 74.0835 207.963 75.1459V87.4825C207.963 87.7634 208.016 88.0263 208.113 88.2685L208.114 88.2707C208.43 89.061 209.463 89.6174 210.572 89.3229L214.666 88.2346C215.694 87.9612 216.749 88.5719 217.023 89.5985C217.297 90.6252 216.685 91.6791 215.657 91.9525L211.563 93.0411C208.863 93.7579 205.682 92.5637 204.536 89.6977L206.325 88.9842L204.537 89.6999C204.26 89.0101 204.11 88.2618 204.11 87.4825V75.1459C204.11 74.0835 204.972 73.2222 206.036 73.2222Z" fill="#253138"/>
<path d="M218.388 45.3969L250.672 53.7282C250.672 53.7282 249.204 44.6837 235.996 41.3972C222.788 38.1126 218.388 45.3969 218.388 45.3969Z" fill="#253138"/>
<path d="M198.326 45.3969L166.038 53.7282C166.038 53.7282 167.506 44.6837 180.714 41.3972C193.922 38.1126 198.326 45.3969 198.326 45.3969Z" fill="#253138"/>
<path fill-rule="evenodd" clip-rule="evenodd" d="M229.409 99.0291C229.894 99.9744 229.521 101.134 228.574 101.619L227.695 99.9074C228.574 101.619 228.574 101.619 228.573 101.62L228.572 101.62L228.568 101.622L228.56 101.626L228.536 101.638C228.516 101.648 228.489 101.661 228.456 101.678C228.388 101.71 228.294 101.756 228.172 101.811C227.93 101.923 227.58 102.077 227.128 102.26C226.226 102.625 224.915 103.104 223.242 103.58C219.897 104.532 215.092 105.476 209.191 105.476C202.74 105.476 198.212 104.537 195.246 103.556C193.764 103.066 192.677 102.568 191.938 102.175C191.569 101.978 191.288 101.809 191.089 101.681C190.99 101.616 190.911 101.563 190.851 101.521C190.822 101.5 190.797 101.482 190.777 101.468L190.751 101.449L190.741 101.441L190.737 101.437L190.735 101.436C190.734 101.435 190.733 101.434 191.904 99.9074L190.733 101.434C189.888 100.788 189.728 99.5805 190.375 98.7372C191.019 97.8989 192.218 97.7361 193.061 98.3692C193.061 98.3692 193.061 98.3692 193.061 98.3692C193.063 98.3705 193.066 98.3727 193.071 98.3757C193.087 98.3875 193.123 98.412 193.178 98.4475C193.288 98.5185 193.477 98.6337 193.75 98.7791C194.296 99.0697 195.183 99.4823 196.457 99.9036C199.003 100.745 203.119 101.629 209.191 101.629C214.681 101.629 219.128 100.75 222.186 99.8798C223.715 99.4447 224.895 99.0122 225.682 98.6939C226.075 98.5348 226.37 98.4044 226.561 98.3166C226.656 98.2728 226.726 98.2396 226.768 98.2189L226.815 98.1958C226.815 98.196 226.815 98.1957 226.815 98.1958C226.815 98.1957 226.817 98.195 226.817 98.1949C226.817 98.1947 226.818 98.1945 226.818 98.1943C227.764 97.7119 228.923 98.085 229.409 99.0291Z" fill="#253138"/>
<path fill-rule="evenodd" clip-rule="evenodd" d="M184.364 52.968C174.581 52.968 166.649 60.8873 166.649 70.6568C166.649 80.4263 174.581 88.3456 184.364 88.3456C194.148 88.3456 202.08 80.4263 202.08 70.6568C202.08 60.8873 194.148 52.968 184.364 52.968ZM161.268 70.6568C161.268 57.919 171.609 47.5947 184.364 47.5947C197.119 47.5947 207.461 57.919 207.461 70.6568C207.461 83.3946 197.119 93.7189 184.364 93.7189C171.609 93.7189 161.268 83.3946 161.268 70.6568Z" fill="white"/>
<path fill-rule="evenodd" clip-rule="evenodd" d="M234.49 52.968C224.706 52.968 216.775 60.8873 216.775 70.6568C216.775 80.4263 224.706 88.3456 234.49 88.3456C244.274 88.3456 252.206 80.4263 252.206 70.6568C252.206 60.8873 244.274 52.968 234.49 52.968ZM211.394 70.6568C211.394 57.919 221.735 47.5947 234.49 47.5947C247.245 47.5947 257.587 57.919 257.587 70.6568C257.587 83.3946 247.245 93.7189 234.49 93.7189C221.735 93.7189 211.394 83.3946 211.394 70.6568Z" fill="white"/>
<path d="M190.459 69.2558C190.459 71.9027 188.307 74.0515 185.654 74.0515C183.004 74.0515 180.854 71.9027 180.854 69.2558C180.854 66.6069 183.004 64.46 185.654 64.46C188.307 64.46 190.459 66.6069 190.459 69.2558Z" fill="#253138"/>
<path d="M190.938 69.2553C190.938 72.1669 188.571 74.5307 185.653 74.5307C182.738 74.5307 180.373 72.1669 180.373 69.2553C180.373 66.3416 182.738 63.98 185.653 63.98C188.571 63.98 190.938 66.3416 190.938 69.2553Z" fill="#253138"/>
<path d="M235.482 69.2558C235.482 71.9027 233.33 74.0515 230.679 74.0515C228.029 74.0515 225.877 71.9027 225.877 69.2558C225.877 66.6069 228.029 64.46 230.679 64.46C233.33 64.46 235.482 66.6069 235.482 69.2558Z" fill="#253138"/>
<path d="M235.962 69.2553C235.962 72.1669 233.595 74.5307 230.68 74.5307C227.764 74.5307 225.397 72.1669 225.397 69.2553C225.397 66.3416 227.764 63.98 230.68 63.98C233.595 63.98 235.962 66.3416 235.962 69.2553Z" fill="#253138"/>
</g>
</svg>
